<svg xmlns="http://www.w3.org/2000/svg" width="800" height="800" viewBox="0 0 800 800" version="1.1">
	<path d="M 643.929 151.292 C 635.501 154.165, 625.164 160.912, 619.446 167.271 C 609.173 178.697, 601.384 200.817, 599.999 222.500 C 599.110 236.411, 599.611 237.892, 605.917 239.972 C 609.908 241.290, 610.136 241.244, 612.925 238.572 C 615.483 236.121, 615.886 234.887, 616.491 227.655 C 618.565 202.856, 627.574 182.258, 640.045 173.801 C 652.893 165.089, 665.764 164.172, 679.500 170.988 C 689.732 176.066, 695.308 182.563, 698.416 193.028 C 703.519 210.211, 697.254 228.554, 682.609 239.307 C 663.282 253.498, 635.779 258.627, 600.994 254.528 C 573.177 251.249, 542.288 239.679, 519.500 224 C 514.706 220.702, 507.998 213.552, 508.004 211.747 C 508.007 211.061, 510.032 208.269, 512.504 205.542 C 517.079 200.497, 517.885 198.285, 515.879 196.279 C 513.250 193.650, 525.218 182.182, 532.259 180.584 C 537.841 179.317, 544 184.896, 544 191.219 C 544 193.028, 542.835 197.657, 541.411 201.504 C 539.988 205.352, 538.351 209.850, 537.775 211.500 C 537.199 213.150, 536.338 214.927, 535.864 215.450 C 535.389 215.972, 535.016 217.547, 535.035 218.950 C 535.065 221.143, 536.195 222.036, 543.105 225.330 C 547.524 227.437, 551.671 228.954, 552.320 228.701 C 553.389 228.285, 559.295 217.407, 561.115 212.500 C 565.551 200.540, 566.339 196.973, 566.417 188.500 C 566.487 180.942, 566.120 178.728, 564.126 174.677 C 558.976 164.219, 546.945 156.746, 535 156.587 C 527.626 156.488, 523.555 157.863, 516.765 162.744 C 512.052 166.132, 496.019 183.919, 491.744 190.502 C 490.510 192.402, 488.375 194.364, 487 194.861 C 481.955 196.685, 477.709 202.244, 469.267 218.079 C 465.392 225.348, 455.369 243.042, 442.876 264.672 C 439.644 270.267, 437 275.114, 437 275.442 C 437 275.771, 435.954 277.718, 434.675 279.770 C 433.396 281.821, 430.528 286.875, 428.301 291 C 422.119 302.455, 418.807 308.398, 417.994 309.500 C 417.058 310.766, 405.914 331.108, 400.737 341 C 398.578 345.125, 396.468 348.950, 396.049 349.500 C 395.629 350.050, 392.901 355, 389.986 360.500 C 387.071 366, 380.635 377.925, 375.682 387 C 370.730 396.075, 365.134 406.425, 363.247 410 C 361.360 413.575, 357.321 421.225, 354.273 427 C 351.224 432.775, 347.494 439.750, 345.985 442.500 C 344.475 445.250, 341.886 449.975, 340.231 453 C 335.066 462.444, 304.577 523.166, 301.569 530 C 299.995 533.575, 297.657 539.058, 296.373 542.184 C 295.088 545.311, 292.708 550.771, 291.083 554.319 C 286.158 565.072, 279.262 582.242, 278.059 586.746 C 276.737 591.697, 277.927 595, 281.033 595 C 284.542 595, 309.134 568.252, 332.064 539.495 C 359.842 504.656, 372.694 487.541, 410.154 435.500 C 433.266 403.392, 436.680 398.677, 445.270 387 C 448.710 382.325, 452.193 377.523, 453.012 376.329 C 453.830 375.135, 463.532 361.635, 474.571 346.329 C 506.788 301.661, 528.394 270.984, 532.354 264.289 C 533.438 262.455, 518.024 252.500, 516.023 253.742 C 514.328 254.795, 509.238 261.722, 499.607 276.085 C 496.072 281.357, 491.801 286.831, 490.115 288.249 C 478.441 298.073, 463 291.096, 463 275.999 C 463 271.094, 464.824 267.412, 477.613 246.500 L 487.398 230.500 487.220 223.856 C 487.092 219.126, 487.454 216.868, 488.477 216.019 C 490.291 214.513, 492 215.521, 492 218.099 C 492 224.480, 502.541 235.459, 515 242.054 C 517.475 243.364, 523.226 246.588, 527.781 249.218 C 532.335 251.848, 536.240 254, 536.458 254 C 536.676 254, 540.149 255.511, 544.177 257.358 C 583.341 275.318, 635.563 279.047, 671.242 266.432 C 694.545 258.193, 709.178 244.070, 716.761 222.500 C 719.746 214.009, 720.201 198.714, 717.716 190.390 C 712.118 171.636, 699.304 157.855, 681.431 151.368 C 672.206 148.019, 653.640 147.981, 643.929 151.292 M 603.037 289.828 L 599.649 292.656 600.893 304.578 C 601.578 311.135, 602.792 320.775, 603.592 326 C 606.343 343.958, 609.118 360.507, 610.133 365 C 612.593 375.890, 616.169 398.661, 617.514 412 C 619.979 436.453, 619.138 458.608, 615.160 474 C 607.788 502.526, 582.329 525.705, 549.251 534.008 C 531.619 538.434, 513.629 539.712, 499.500 537.543 C 497.300 537.205, 491 536.234, 485.500 535.384 C 472.947 533.446, 455.582 528.724, 442.500 523.690 C 440.300 522.844, 434.675 520.969, 430 519.523 C 425.325 518.077, 418.575 515.826, 415 514.520 C 411.425 513.214, 402.449 510.260, 395.054 507.955 L 381.609 503.765 377.804 507.844 C 374.952 510.902, 374 512.769, 374 515.306 C 374 519.710, 376.168 521.567, 383.543 523.482 C 388.981 524.895, 397.918 527.901, 441.078 542.835 C 449.095 545.609, 459.670 548.819, 464.578 549.968 C 469.485 551.116, 475.075 552.455, 477 552.943 C 496.224 557.815, 536.106 557.865, 551 553.036 C 552.375 552.590, 556.425 551.423, 560 550.444 C 563.575 549.464, 566.928 548.288, 567.450 547.831 C 567.973 547.374, 569.010 547, 569.756 547 C 572.015 547, 583.859 540.803, 593 534.839 C 599.465 530.621, 612.964 517.522, 618.124 510.460 C 625.402 500.501, 632.521 483.528, 636.144 467.500 C 637.847 459.966, 637.929 415.865, 636.255 407.892 C 635.633 404.926, 634.633 399.125, 634.033 395 C 632.788 386.436, 632.429 384.423, 627.004 355.500 C 624.143 340.246, 619.793 310.654, 619.205 302.439 L 618.500 292.590 614.500 289.828 C 609.415 286.317, 607.243 286.317, 603.037 289.828 M 277 504.938 C 262.347 509.300, 258.322 510.841, 246.910 516.459 C 232.887 523.361, 224.384 529.497, 213.500 540.569 C 203.633 550.606, 198.582 558.306, 193.881 570.476 C 189.007 583.098, 188.854 587.923, 193.201 591.972 C 198.036 596.478, 202.615 593.589, 207.085 583.213 C 215.356 564.013, 221.646 555.914, 237.500 544.051 C 244.939 538.484, 260.021 530, 262.477 530 C 262.825 530, 264.998 529.149, 267.305 528.108 C 271.040 526.424, 281.179 523.011, 287.947 521.159 C 293.605 519.610, 296.187 508.957, 291.988 504.487 C 289.115 501.429, 288.751 501.440, 277 504.938" stroke="none" fill="black" fill-rule="evenodd"/>
</svg>